#!OML:ASF H:\ManfredETheater\Project 1\Capture day 1\Session 1\subject.ASF
:FULLY-SPECIFIED
:DEGREES
153
root -10.4134 15.1379 29.1327 -8.73994 -38.3149 2.70259
lowerback 15.453 -0.825203 -1.10574
upperback 2.28445 -1.26072 0.875317
thorax -6.18753 -0.602696 1.81421
lowerneck -19.8717 -2.58414 -3.58712
upperneck 13.3241 -2.84608 1.94102
head 7.42291 -1.3582 0.878425
rclavicle -1.27719e-014 -1.59028e-015
rhumerus -55.6056 -3.24319 -87.6919
rradius 89.6944
rwrist -14.788
rhand -26.3736 11.8005
rfingers 7.12502
rthumb 0.184894 -18.1791
lclavicle -1.27719e-014 -1.59028e-015
lhumerus -51.1307 -10.4384 101.815
lradius 102.07
lwrist 9.33434
lhand -22.2695 -10.291
lfingers 7.12502
lthumb 4.14857 19.6483
rfemur -40.5574 -11.1839 15.9157
rtibia 92.8073
rfoot -13.1045 -9.99324
rtoes -24.0232
lfemur -32.0994 -0.0779251 -25.7363
ltibia 72.7422
lfoot -27.3109 -2.99284
ltoes 5.88491
154
root -10.6833 15.1397 29.4642 -8.88275 -38.0863 2.83871
lowerback 15.4746 -0.924689 -1.29375
upperback 2.23055 -1.42256 0.878173
thorax -6.24594 -0.67606 1.95816
lowerneck -19.8951 -2.53519 -3.55081
upperneck 13.4607 -2.77382 1.84575
head 7.468 -1.33139 0.84935
rclavicle -2.58917e-014 -1.74931e-014
rhumerus -56.7347 -3.07011 -87.4323
rradius 89.8553
rwrist -15.8907
rhand -26.1895 11.9368
rfingers 7.12502
rthumb 0.362681 -18.0427
lclavicle -2.58917e-014 -1.74931e-014
lhumerus -49.6527 -10.5054 101.947
lradius 103.072
lwrist 9.44428
lhand -22.2622 -10.0921
lfingers 7.12502
lthumb 4.15554 19.8471
rfemur -42.4527 -11.2962 16.0455
rtibia 89.7198
rfoot -13.1529 -9.68607
rtoes -25.0084
lfemur -30.2101 0.0531213 -25.9416
ltibia 72.9517
lfoot -28.8697 -2.83987
ltoes 6.12471
155
root -10.9552 15.1608 29.7927 -8.90574 -37.7798 2.95819
lowerback 15.4031 -1.06607 -1.52437
upperback 2.1464 -1.64415 0.899022
thorax -6.27998 -0.777039 2.15553
lowerneck -19.9369 -2.46117 -3.47784
upperneck 13.5577 -2.67339 1.7339
head 7.50171 -1.29069 0.81228
rclavicle -4.38817e-014 7.15625e-015
rhumerus -57.8986 -2.66553 -87.2733
rradius 90.3791
rwrist -16.6762
rhand -25.8245 12.1457
rfingers 7.12502
rthumb 0.715211 -17.8329
lclavicle -4.38817e-014 7.15625e-015
lhumerus -48.4245 -10.5517 102.111
lradius 104.504
lwrist 10.2748
lhand -22.1031 -9.89841
lfingers 7.12502
lthumb 4.3092 20.0377
rfemur -44.0334 -11.381 16.2098
rtibia 86.0637
rfoot -13.0422 -9.47741
rtoes -25.3588
lfemur -28.3907 0.0292049 -26.1197
ltibia 72.9962
lfoot -30.0313 -2.67983
ltoes 5.66972
156
root -11.2293 15.1983 30.1197 -8.77806 -37.4338 2.9935
lowerback 15.2277 -1.24667 -1.72634
upperback 2.0415 -1.90902 0.947464
thorax -6.2747 -0.899602 2.37128
lowerneck -19.9833 -2.36305 -3.37176
upperneck 13.6033 -2.54747 1.61554
head 7.51814 -1.23659 0.770941
rclavicle -3.68249e-014 0
rhumerus -59.0545 -2.11492 -87.1911
rradius 91.133
rwrist -16.9733
rhand -25.338 12.4073
rfingers 7.12502
rthumb 1.18512 -17.5691
lclavicle -3.68249e-014 0
lhumerus -47.4263 -10.6309 102.29
lradius 106.282
lwrist 11.7702
lhand -21.8115 -9.7283
lfingers 7.12502
lthumb 4.59075 20.202
rfemur -45.2677 -11.3796 16.4436
rtibia 81.8734
rfoot -12.7358 -9.36694
rtoes -25.0559
lfemur -26.6957 -0.109859 -26.2085
ltibia 72.9727
lfoot -30.7599 -2.52148
ltoes 4.4248
157
root -11.5055 15.2471 30.446 -8.54656 -37.0591 2.99712
lowerback 14.9415 -1.45174 -1.91411
upperback 1.92478 -2.20098 1.00416
thorax -6.21706 -1.03633 2.5879
lowerneck -20.0185 -2.24985 -3.2417
upperneck 13.5969 -2.40829 1.50049
head 7.51515 -1.17448 0.728676
rclavicle -8.49804e-015 -1.59028e-014
rhumerus -60.1671 -1.51994 -87.1487
rradius 92.0014
rwrist -16.7346
rhand -24.8002 12.6943
rfingers 7.12502
rthumb 1.70454 -17.2786
lclavicle -8.49804e-015 -1.59028e-014
lhumerus -46.6363 -10.7879 102.463
lradius 108.298
lwrist 13.6498
lhand -21.4253 -9.58626
lfingers 7.12502
lthumb 4.96372 20.3356
rfemur -46.1549 -11.2906 16.6721
rtibia 77.2125
rfoot -12.266 -9.33714
rtoes -24.4749
lfemur -25.1653 -0.329881 -26.2543
ltibia 72.9659
lfoot -31.0281 -2.40371
ltoes 2.4706
158
root -11.7843 15.3047 30.7726 -8.23423 -36.7023 2.95722
lowerback 14.5692 -1.66014 -2.06452
upperback 1.79702 -2.4884 1.07216
thorax -6.12211 -1.17233 2.78877
lowerneck -20.0303 -2.13426 -3.11192
upperneck 13.5609 -2.26873 1.39802
head 7.49891 -1.11098 0.690901
rclavicle -5.90887e-014 1.59028e-015
rhumerus -61.2297 -0.953502 -87.1123
rradius 92.8999
rwrist -16.0498
rhand -24.2876 12.9749
rfingers 7.12502
rthumb 2.19965 -16.9935
lclavicle -5.90887e-014 1.59028e-015
lhumerus -46.0503 -11.0344 102.626
lradius 110.433
lwrist 15.5446
lhand -21.0122 -9.46579
lfingers 7.12502
lthumb 5.36253 20.4464
rfemur -46.6693 -11.0608 16.8767
rtibia 72.1516
rfoot -11.6785 -9.34117
rtoes -23.5279
lfemur -23.8037 -0.571516 -26.2328
ltibia 73.0404
lfoot -30.824 -2.37378
ltoes -0.094404
159
root -12.0657 15.3688 31.1006 -7.90096 -36.3871 2.8972
lowerback 14.1158 -1.8555 -2.1773
upperback 1.68553 -2.75086 1.13865
thorax -5.96567 -1.29888 2.95479
lowerneck -20.0276 -2.02774 -2.98865
upperneck 13.5119 -2.14301 1.31146
head 7.47687 -1.05288 0.657847
rclavicle -1.06698e-013 3.4191e-014
rhumerus -62.2067 -0.477808 -87.0607
rradius 93.7655
rwrist -15.0996
rhand -23.8237 13.2239
rfingers 7.12502
rthumb 2.64764 -16.7394
lclavicle -1.06698e-013 3.4191e-014
lhumerus -45.6326 -11.3792 102.763
lradius 112.566
lwrist 17.0634
lhand -20.6223 -9.39938
lfingers 7.12502
lthumb 5.73897 20.5029
rfemur -46.7918 -10.6947 17.0308
rtibia 66.7659
rfoot -10.9456 -9.42263
rtoes -22.8318
lfemur -22.5848 -0.79841 -26.1593
ltibia 73.2335
lfoot -30.1331 -2.46389
ltoes -3.15004
160
root -12.3496 15.4369 31.4305 -7.58215 -36.1323 2.80047
lowerback 13.6222 -2.02516 -2.23092
upperback 1.59764 -2.9695 1.20349
thorax -5.76582 -1.40712 3.07159
lowerneck -19.9894 -1.94384 -2.90581
upperneck 13.4591 -2.04612 1.27107
head 7.44951 -1.00624 0.643285
rclavicle 4.40308e-014 -1.35174e-014
rhumerus -63.1011 -0.125184 -86.9861
rradius 94.5748
rwrist -14.1061
rhand -23.4451 13.3973
rfingers 7.12502
rthumb 3.01328 -16.5611
lclavicle 4.40308e-014 -1.35174e-014
lhumerus -45.3711 -11.8179 102.865
lradius 114.596
lwrist 17.9495
lhand -20.2774 -9.42357
lfingers 7.12502
lthumb 6.07196 20.4694
rfemur -46.5037 -10.1611 17.1137
rtibia 61.1735
rfoot -10.2088 -9.4931
rtoes -22.1663
lfemur -21.487 -0.981654 -26.0106
ltibia 73.5693
lfoot -28.9279 -2.74111
ltoes -6.41296
161
root -12.6357 15.5058 31.7617 -7.30791 -35.9257 2.65281
lowerback 13.1119 -2.16901 -2.20805
upperback 1.55912 -3.14345 1.26043
thorax -5.51064 -1.49758 3.12356
lowerneck -19.9532 -1.88877 -2.85895
upperneck 13.4264 -1.98702 1.2792
head 7.43095 -0.974791 0.645884
rclavicle -1.09332e-014 -3.18055e-015
rhumerus -63.8802 0.0850667 -86.8956
rradius 95.3171
rwrist -13.2492
rhand -23.1477 13.4684
rfingers 7.12502
rthumb 3.30043 -16.4858
lclavicle -1.09332e-014 -3.18055e-015
lhumerus -45.2099 -12.3477 102.912
lradius 116.459
lwrist 18.1313
lhand -19.9905 -9.52288
lfingers 7.12502
lthumb 6.34895 20.362
rfemur -45.8155 -9.4624 17.1168
rtibia 55.5073
rfoot -9.55576 -9.52488
rtoes -21.6279
lfemur -20.5007 -1.12472 -25.7718
ltibia 74.064
lfoot -27.1713 -3.25061
ltoes -9.54411
162
root -12.9239 15.5716 32.0942 -7.1177 -35.7469 2.48556
lowerback 12.6399 -2.28367 -2.13124
upperback 1.54945 -3.27369 1.30305
thorax -5.25261 -1.56845 3.12145
lowerneck -19.9043 -1.87162 -2.86613
upperneck 13.4427 -1.97373 1.33592
head 7.4286 -0.963509 0.667685
rclavicle -4.72114e-014 -2.38542e-015
rhumerus -64.5843 0.157052 -86.7814
rradius 95.9998
rwrist -12.647
rhand -22.9352 13.4207
rfingers 7.12502
rthumb 3.50568 -16.5302
lclavicle -4.72114e-014 -2.38542e-015
lhumerus -45.1581 -12.9501 102.915
lradius 118.115
lwrist 17.709
lhand -19.7806 -9.71088
lfingers 7.12502
lthumb 6.55159 20.1678
rfemur -44.7762 -8.61892 17.0019
rtibia 49.9285
rfoot -9.04354 -9.50012
rtoes -21.3006
lfemur -19.6265 -1.25225 -25.4794
ltibia 74.7256
lfoot -24.832 -4.03567
ltoes -11.9653
163
root -13.2142 15.6311 32.4274 -6.99755 -35.5943 2.26134
lowerback 12.2283 -2.36851 -1.98199
upperback 1.56198 -3.35739 1.34041
thorax -5.01227 -1.6177 3.06667
lowerneck -19.8522 -1.89206 -2.91467
upperneck 13.5324 -2.00602 1.42205
head 7.45174 -0.973537 0.700271
rclavicle -7.21091e-014 1.51076e-014
rhumerus -65.2247 0.101817 -86.647
rradius 96.6274
rwrist -12.3427
rhand -22.7978 13.2643
rfingers 7.12502
rthumb 3.63839 -16.6844
lclavicle -7.21091e-014 1.51076e-014
lhumerus -45.1999 -13.6053 102.87
lradius 119.552
lwrist 16.9012
lhand -19.6478 -9.96708
lfingers 7.12502
lthumb 6.67978 19.9076
rfemur -43.4532 -7.6047 16.8095
rtibia 44.6074
rfoot -8.69471 -9.46708
rtoes -21.3156
lfemur -18.8734 -1.35445 -25.0954
ltibia 75.5623
lfoot -21.9243 -5.03292
ltoes -13.3924
164
root -13.5071 15.682 32.7607 -6.94989 -35.4308 1.99232
lowerback 11.8752 -2.43014 -1.77878
upperback 1.59506 -3.40647 1.36892
thorax -4.78893 -1.65051 2.96873
lowerneck -19.7888 -1.95465 -3.01912
upperneck 13.6814 -2.08899 1.55145
head 7.49496 -1.00673 0.75007
rclavicle -9.8473e-014 2.38542e-015
rhumerus -65.8014 -0.0656535 -86.4957
rradius 97.2058
rwrist -12.3212
rhand -22.7162 13.0206
rfingers 7.12502
rthumb 3.71719 -16.9268
lclavicle -9.8473e-014 2.38542e-015
lhumerus -45.3054 -14.3006 102.774
lradius 120.765
lwrist 15.9454
lhand -19.5587 -10.2666
lfingers 7.12502
lthumb 6.76579 19.6053
rfemur -41.9775 -6.44047 16.5414
rtibia 39.838
rfoot -8.54784 -9.50195
rtoes -21.6182
lfemur -18.2604 -1.46088 -24.6362
ltibia 76.613
lfoot -18.5402 -6.15986
ltoes -13.4263
